# xmcd
#
# Track frame offsets:
#  150
#  5598
#  23150
#  43037
#  61102
#  81640
#  98510
#  115496
#  136772
#  153944
#  170471
#  193266
#  212199
#
# Disc length: 3111 seconds
#
# Revision: 0
# Processed by: cddbd v1.5.1PL0 Copyright (c) Steve Scherf et al.
# Submitted via: Collectorz.com_Music_Collector 6.9
#
DISCID=ac0c250d
DTITLE=Dwele - Some Kinda
DYEAR=2005
DGENRE=
TTITLE0=Intro
TTITLE1=Holla
TTITLE2=A Pimp's Dream
TTITLE3=Know Your Name
TTITLE4=My Lova
TTITLE5=Flapjacks
TTITLE6=Weekend Love
TTITLE7=Lay It Down
TTITLE8=I Think I Love You
TTITLE9=Keep On ft. Slum Village
TTITLE10=Some Kinda
TTITLE11=Wake The Baby ft. Boney James
TTITLE12=One Lovas
EXTD=
EXTT0=
EXTT1=
EXTT2=
EXTT3=
EXTT4=
EXTT5=
EXTT6=
EXTT7=
EXTT8=
EXTT9=
EXTT10=
EXTT11=
EXTT12=
PLAYORDER=
